<svg width="1.25rem" height="1.25rem" viewBox="0 0 65.8 40.5" style="enable-background:new 0 0 65.8 40.5;" xml:space="preserve">
<g>
	<path fill="none" stroke="#000000" stroke-width="4.3" stroke-linecap="round" stroke-linejoin="round" stroke-miterlimit='10' d="M25.1,26.9c0,6.3-5.2,11.4-11.4,11.4S2.2,33.2,2.2,26.9C9.8,26.9,17.4,26.9,25.1,26.9z"/>
	<polygon fill="none" stroke="#000000" stroke-width="4.4" stroke-linecap="round" stroke-linejoin="round" stroke-miterlimit='10' points="13.6,26.9 5,26.9 9.3,16.7 13.6,6.6 18,16.7 22.3,26.9 	"/>
	<path fill="none" stroke="#000000" stroke-width="4.3" stroke-linecap="round" stroke-linejoin="round" stroke-miterlimit='10' d="M9.3,6.3c6.5,0,12.9,0,19.4,0"/>
	<circle fill="none" stroke="#000000" stroke-width="4.3" stroke-linecap="round" stroke-linejoin="round" stroke-miterlimit='10' cx="32.9" cy="6.3" r="4.1"/>
	<path fill="none" stroke="#000000" stroke-width="4.3" stroke-linecap="round" stroke-linejoin="round" stroke-miterlimit='10' d="M40.7,26.9c0,6.3,5.2,11.4,11.4,11.4s11.4-5.2,11.4-11.4C56,26.9,48.4,26.9,40.7,26.9z"/>
	<polygon fill="none" stroke="#000000" stroke-width="4.3" stroke-linecap="round" stroke-linejoin="round" stroke-miterlimit='10' points="52.2,26.9 60.8,26.9 56.5,16.7 52.2,6.6 47.9,16.7 43.5,26.9 	"/>
	<path fill="none" stroke="#000000" stroke-width="4.3" stroke-linecap="round" stroke-linejoin="round" stroke-miterlimit='10' d="M56.5,6.3c-6.5,0-12.9,0-19.4,0"/>
</g>
</svg>