<svg xmlns="http://www.w3.org/2000/svg" width="19" height="19" viewBox="0 0 19 19" fill="none">
  <path d="M17.1016 6.62286C17.1016 5.5788 17.1016 4.8484 17.1016 4.77911C17.1016 4.00371 16.4707 3.37286 15.6953 3.37286H15.5078V5.09161C15.5078 5.35049 15.2979 5.56036 15.0391 5.56036C14.7802 5.56036 14.5703 5.35049 14.5703 5.09161C14.5703 4.56539 14.5703 3.11561 14.5703 2.59161C14.5703 2.33274 14.3604 2.12286 14.1016 2.12286C13.8427 2.12286 13.6328 2.33274 13.6328 2.59161V3.37286H10.5078V5.09161C10.5078 5.35049 10.2979 5.56036 10.0391 5.56036C9.78019 5.56036 9.57031 5.35049 9.57031 5.09161C9.57031 4.56539 9.57031 3.11561 9.57031 2.59161C9.57031 2.33274 9.36044 2.12286 9.10156 2.12286C8.84269 2.12286 8.63281 2.33274 8.63281 2.59161V3.37286H5.50781V5.09161C5.50781 5.35049 5.29794 5.56036 5.03906 5.56036C4.78019 5.56036 4.57031 5.35049 4.57031 5.09161C4.57031 4.56539 4.57031 3.11561 4.57031 2.59161C4.57031 2.33274 4.36044 2.12286 4.10156 2.12286C3.84269 2.12286 3.63281 2.33274 3.63281 2.59161V3.37286H2.50781C1.73241 3.37286 1.10156 4.00371 1.10156 4.77911V6.62286H17.1016Z" fill="#5D6C7B"/>
  <path d="M1.10156 7.56036V15.1541C1.10156 15.9295 1.73241 16.5604 2.50781 16.5604H15.6953C16.4707 16.5604 17.1016 15.9295 17.1016 15.1541C17.1016 14.9533 17.1016 10.5662 17.1016 7.56036C16.8098 7.56036 1.26294 7.56036 1.10156 7.56036ZM5.60156 14.0604H4.60156C4.34269 14.0604 4.13281 13.8505 4.13281 13.5916C4.13281 13.3327 4.34269 13.1229 4.60156 13.1229H5.60156C5.86044 13.1229 6.07031 13.3327 6.07031 13.5916C6.07031 13.8505 5.86044 14.0604 5.60156 14.0604ZM5.60156 12.0604H4.60156C4.34269 12.0604 4.13281 11.8505 4.13281 11.5916C4.13281 11.3327 4.34269 11.1229 4.60156 11.1229H5.60156C5.86044 11.1229 6.07031 11.3327 6.07031 11.5916C6.07031 11.8505 5.86044 12.0604 5.60156 12.0604ZM5.60156 10.0604H4.60156C4.34269 10.0604 4.13281 9.85049 4.13281 9.59161C4.13281 9.33274 4.34269 9.12286 4.60156 9.12286H5.60156C5.86044 9.12286 6.07031 9.33274 6.07031 9.59161C6.07031 9.85049 5.86044 10.0604 5.60156 10.0604ZM9.60156 14.0604H8.60156C8.34269 14.0604 8.13281 13.8505 8.13281 13.5916C8.13281 13.3327 8.34269 13.1229 8.60156 13.1229H9.60156C9.86044 13.1229 10.0703 13.3327 10.0703 13.5916C10.0703 13.8505 9.86044 14.0604 9.60156 14.0604ZM9.60156 12.0604H8.60156C8.34269 12.0604 8.13281 11.8505 8.13281 11.5916C8.13281 11.3327 8.34269 11.1229 8.60156 11.1229H9.60156C9.86044 11.1229 10.0703 11.3327 10.0703 11.5916C10.0703 11.8505 9.86044 12.0604 9.60156 12.0604ZM9.60156 10.0604H8.60156C8.34269 10.0604 8.13281 9.85049 8.13281 9.59161C8.13281 9.33274 8.34269 9.12286 8.60156 9.12286H9.60156C9.86044 9.12286 10.0703 9.33274 10.0703 9.59161C10.0703 9.85049 9.86044 10.0604 9.60156 10.0604ZM13.6016 14.0604H12.6016C12.3427 14.0604 12.1328 13.8505 12.1328 13.5916C12.1328 13.3327 12.3427 13.1229 12.6016 13.1229H13.6016C13.8604 13.1229 14.0703 13.3327 14.0703 13.5916C14.0703 13.8505 13.8604 14.0604 13.6016 14.0604ZM13.6016 12.0604H12.6016C12.3427 12.0604 12.1328 11.8505 12.1328 11.5916C12.1328 11.3327 12.3427 11.1229 12.6016 11.1229H13.6016C13.8604 11.1229 14.0703 11.3327 14.0703 11.5916C14.0703 11.8505 13.8604 12.0604 13.6016 12.0604ZM13.6016 10.0604H12.6016C12.3427 10.0604 12.1328 9.85049 12.1328 9.59161C12.1328 9.33274 12.3427 9.12286 12.6016 9.12286H13.6016C13.8604 9.12286 14.0703 9.33274 14.0703 9.59161C14.0703 9.85049 13.8604 10.0604 13.6016 10.0604Z" fill="#5D6C7B"/>
</svg>