<svg xmlns="http://www.w3.org/2000/svg" width="19" height="19" viewBox="0 0 19 19" fill="none">
  <path d="M9.10156 10.4666C9.72288 10.4666 10.2266 9.96293 10.2266 9.34161C10.2266 8.72029 9.72288 8.21661 9.10156 8.21661C8.48024 8.21661 7.97656 8.72029 7.97656 9.34161C7.97656 9.96293 8.48024 10.4666 9.10156 10.4666Z" fill="#5D6C7B"/>
  <path d="M16.5031 8.96652C16.0231 8.13402 13.3831 3.95652 8.89814 4.09152C4.75064 4.19652 2.35064 7.84152 1.69814 8.96652C1.63231 9.08053 1.59766 9.20987 1.59766 9.34152C1.59766 9.47317 1.63231 9.6025 1.69814 9.71652C2.17064 10.534 4.69814 14.5915 9.11564 14.5915H9.30314C13.4506 14.4865 15.8581 10.8415 16.5031 9.71652C16.569 9.6025 16.6036 9.47317 16.6036 9.34152C16.6036 9.20987 16.569 9.08053 16.5031 8.96652ZM9.10064 11.9665C8.58146 11.9665 8.07394 11.8126 7.64227 11.5241C7.21059 11.2357 6.87413 10.8257 6.67545 10.3461C6.47677 9.86641 6.42479 9.33861 6.52608 8.82941C6.62736 8.32021 6.87737 7.85248 7.24448 7.48536C7.61159 7.11825 8.07932 6.86824 8.58852 6.76696C9.09773 6.66567 9.62553 6.71765 10.1052 6.91633C10.5848 7.11501 10.9948 7.45147 11.2832 7.88315C11.5717 8.31482 11.7256 8.82234 11.7256 9.34152C11.7256 10.0377 11.4491 10.7054 10.9568 11.1977C10.4645 11.69 9.79683 11.9665 9.10064 11.9665Z" fill="#5D6C7B"/>
</svg>