<svg xmlns="http://www.w3.org/2000/svg" viewBox="0 0 18 19" fill="none">
  <path d="M17.0756 6.85312C17.0756 5.16246 16.4131 3.56889 15.2099 2.36575C14.0067 1.16261 12.4132 0.5 10.7226 0.5H6.95831C6.95831 0.5 6.95831 0.5 6.95818 0.5C5.26779 0.5 3.67422 1.16261 2.47122 2.36562C1.26808 3.56876 0.605469 5.16246 0.605469 6.85298V9.81187C0.605469 11.121 1.00482 12.3805 1.76041 13.454C2.427 14.401 3.32349 15.1407 4.3687 15.6098V17.3094C4.3687 18.1881 4.86075 18.4999 5.28207 18.5C5.5831 18.5 5.88426 18.3514 6.17732 18.0585L8.07068 16.1649H10.7228C12.4133 16.1649 14.0069 15.5022 15.21 14.2991C16.4131 13.096 17.0758 11.5024 17.0758 9.81187L17.0756 6.85312ZM12.24 11.868L10.842 13.2658C10.4767 13.6311 9.98972 13.832 9.47061 13.832C8.95151 13.832 8.46454 13.631 8.09924 13.2658L3.70581 8.87227C2.94981 8.116 2.94981 6.88567 3.70581 6.12953L5.10382 4.73166C5.2027 4.63264 5.33673 4.57716 5.47667 4.57716C5.61647 4.57716 5.75064 4.63264 5.84952 4.73166L7.84656 6.7287C7.94543 6.82758 8.00092 6.96175 8.00092 7.10155C8.00092 7.24135 7.94543 7.37552 7.84642 7.4744L7.42056 7.90025L9.07126 9.55095L9.49725 9.12495C9.70325 8.9191 10.0371 8.9191 10.243 9.12509L12.24 11.1221C12.339 11.221 12.3945 11.3552 12.3945 11.495C12.3945 11.6349 12.339 11.7691 12.24 11.868ZM8.44119 5.61949C8.44119 5.32835 8.67726 5.09215 8.96854 5.09215C10.7957 5.09215 12.2823 6.5786 12.2823 8.40562C12.2823 8.6969 12.0462 8.93297 11.7549 8.93297C11.4638 8.93297 11.2276 8.6969 11.2276 8.40562C11.2276 7.16019 10.2142 6.14684 8.96854 6.14684C8.67726 6.14684 8.44119 5.91077 8.44119 5.61949ZM14.0141 8.93324C13.7229 8.93324 13.4868 8.69704 13.4868 8.4059C13.4869 7.19891 13.0169 6.0643 12.1635 5.2108C11.31 4.35744 10.1754 3.88736 8.9684 3.88736C8.67726 3.88736 8.44106 3.65129 8.44106 3.36002C8.44106 3.06888 8.67726 2.83267 8.9684 2.83267C10.457 2.83267 11.8566 3.41248 12.9092 4.4651C13.962 5.51773 14.5416 6.91725 14.5415 8.4059C14.5415 8.69704 14.3054 8.93324 14.0141 8.93324Z" fill="#6F73EE"/>
</svg>